<?xml version="1.0" encoding="UTF-8"?>
<svg id="Calque_2" data-name="Calque 2" xmlns="http://www.w3.org/2000/svg" viewBox="0 0 197.3 1278.96">
  <g id="Calque_1-2" data-name="Calque 1">
    <path d="M24.42,4.2c-6,13.7-13.1,71.1-18.4,149.3C1.42,221.2,.02,258.3,.02,318c-.1,46.5,.2,56.3,1.7,66.7,2.1,14.7,5.4,25.8,11.3,37.6,5.8,11.5,9.5,16.9,26.1,37.8,15,18.9,21,27.7,25.3,37.4,7.4,16.4,9.1,31.6,7.1,59.6-.7,9-4.6,51.5-8.7,94.4-14.7,154.8-18.9,204.3-23.3,278-4.1,67.4-4.6,83-4.6,150.5,0,71.7,.7,87.9,5.6,123,5,35.7,11,51.7,23.9,63.3,29,26.1,73.2,10,85.8-31.3,2.4-7.8,6.6-32.4,8.8-51,2.1-18.4,2.9-69.1,1.5-96.4-1.7-31.8-3.4-52-11.1-129.6-15.8-158.7-20.3-227.2-23.1-347-1.4-60.2-.9-90.9,1.5-99.5,3.8-13.5,9.3-22.6,25.6-42,17.5-21,28.6-39.8,35.8-61,7-20.3,8.7-45.6,7.9-116.5-.6-50.4-1.1-65.8-4.2-114.5C187.22,86.3,177.42-.4,172.92,.8c-3.3,.9-5.1,25.5-8,112.2-3.2,96.4-5.2,130.8-9.1,158-2.5,17.3-5.1,24.3-8.7,23.8-7.6-1.1-11.4-39.2-13.7-138.8C130.42,28.9,129.22,5.3,125.02,1.2c-4.4-4.4-6.4,20.8-9.1,112.3-3.1,106-5.6,144.7-11,168-4,17.8-11,17.9-15,.3-4.7-20.6-6.3-54-7.5-157.6C81.22,23,80.02,.5,75.92,.5c-4,.1-6.8,31.2-10.5,117.5-4.6,106.1-7.5,146.1-12.1,165.5-3.7,15.3-8.9,15.4-12.4,.2-5.1-22.1-7-60.6-8.5-176.2C31.22,20.5,30.32,0,27.22,0c-.5,0-1.8,1.9-2.8,4.2Z"/>
  </g>
</svg>