<?xml version="1.0" encoding="UTF-8"?>
<svg id="Calque_2" data-name="Calque 2" xmlns="http://www.w3.org/2000/svg" viewBox="0 0 154.44 1256.4">
  <g id="Calque_1-2" data-name="Calque 1">
    <path d="M59.81,.45c-9.4,2.2-17.2,14-23.7,36-8.5,28.2-13.3,67.2-17.3,139.2-2.1,36.6-3,227.7-1.5,323.8,1.2,82.1,1.6,86,13.1,129.1,7.3,27.6,8,32.6,8,59.3,0,47.5-3.5,122.2-8,173.1-4.1,45.8-7.7,75.9-17.4,146.5C1.41,1092.15,0,1105.55,0,1139.45c-.1,29.4,1.2,41.5,6.3,62.6,5.4,21.8,10.4,32,20.3,40.9,23.9,21.5,66.7,16.5,84.2-9.9,6.5-9.7,11.4-29.1,14.3-55.6,2.7-25.5,.8-60.8-6.2-114.5-1.3-10.5-4-30.9-5.9-45.5-9-68.6-14.7-130.2-18.1-196-2-40.6-3.8-109.9-3.3-134l.4-20.5,3.6-10.5c2-5.8,9.9-23.8,17.6-40,19.2-40.3,26.2-58.4,32.6-83.5,8.5-33.6,10-60.3,7.6-134-5.8-179.6-27.9-319.6-59.1-374.1C84.21,7.25,70.81-2.25,59.81,.45Z"/>
  </g>
</svg>